<svg width="60" height="60" viewBox="0 0 60 60" fill="none" xmlns="http://www.w3.org/2000/svg">
<path d="M7.51221 17.4995L28.6255 3.42402C29.4653 2.86419 30.5593 2.86419 31.399 3.42402L52.5123 17.4995V52.4995C52.5123 53.8802 51.393 54.9995 50.0123 54.9995H10.0122C8.63151 54.9995 7.51221 53.8802 7.51221 52.4995V17.4995ZM12.5122 20.1754V49.9995H47.5123V20.1754L30.0123 8.50877L12.5122 20.1754ZM20.0122 39.9995H40.0123V44.9995H20.0122V39.9995ZM20.0122 32.4995H40.0123V37.4995H20.0122V32.4995ZM30.0123 27.4995C27.2508 27.4995 25.0123 25.261 25.0123 22.4995C25.0123 19.7381 27.2508 17.4995 30.0123 17.4995C32.7738 17.4995 35.0123 19.7381 35.0123 22.4995C35.0123 25.261 32.7738 27.4995 30.0123 27.4995Z" fill="#445FF8"/>
</svg>
