<svg width="60" height="60" viewBox="0 0 60 60" fill="none" xmlns="http://www.w3.org/2000/svg">
<path d="M39.7235 23.2797C38.3662 21.9941 37.493 20.2804 37.2508 18.4268L35.9898 8.77985L27.4441 13.43C25.802 14.3235 23.9023 14.6244 22.0645 14.282L12.5001 12.5002L14.2819 22.0647C14.6243 23.9026 14.3234 25.802 13.4299 27.4441L8.77968 35.9898L18.4266 37.2508C20.2803 37.493 21.9939 38.3662 23.2795 39.7235L29.97 46.7867L34.1502 38.0019C34.9536 36.3138 36.3134 34.9536 38.0016 34.1506L46.7867 29.97L39.7235 23.2797ZM39.8023 40.6912L32.8774 55.2442C32.4318 56.1809 31.3114 56.5787 30.375 56.133C30.1662 56.0338 29.9775 55.8968 29.8185 55.7287L18.7353 44.028C18.4386 43.7147 18.0431 43.5132 17.6154 43.4574L1.6346 41.3684C0.606267 41.2338 -0.118366 40.2915 0.016051 39.2631C0.0460014 39.0337 0.118077 38.8121 0.228584 38.609L7.93187 24.4525C8.13808 24.0735 8.20752 23.635 8.1285 23.211L5.17683 7.36692C4.98689 6.34738 5.65942 5.36693 6.67895 5.177C6.90626 5.13465 7.13945 5.13465 7.36675 5.177L23.2109 8.12867C23.635 8.20766 24.0735 8.13824 24.4522 7.93203L38.6087 0.228749C39.5197 -0.266952 40.6602 0.0696707 41.1556 0.98061C41.2664 1.18372 41.3384 1.40549 41.3681 1.63476L43.4571 17.6155C43.5131 18.0433 43.7147 18.4387 44.0276 18.7354L55.7287 29.8185C56.4817 30.5318 56.5139 31.7204 55.8007 32.4731C55.6417 32.6412 55.453 32.7782 55.2442 32.8774L40.6912 39.8024C40.3015 39.9879 39.9876 40.3015 39.8023 40.6912ZM42.296 46.7223L46.7219 42.2964L60 55.5741L55.5741 60L42.296 46.7223Z" fill="#445FF8"/>
</svg>
