<svg
  width="36"
  height="36"
  viewBox="0 0 36 36"
  fill="none"
  xmlns="http://www.w3.org/2000/svg">
  <g clip-path="url(#clip0_424_11274)">
    <path
      d="M18 36C8.05887 36 0 27.941 0 18C0 8.05887 8.05887 0 18 0C27.941 0 36 8.05887 36 18C36 27.941 27.941 36 18 36ZM18 32.4C25.9529 32.4 32.4 25.9529 32.4 18C32.4 10.0471 25.9529 3.6 18 3.6C10.0471 3.6 3.6 10.0471 3.6 18C3.6 25.9529 10.0471 32.4 18 32.4Z"
      fill="#B3B7C9" />
    <g clip-path="url(#clip1_424_11274)">
      <path
        d="M30.4378 22.4976L22.6903 26.1727L21.7302 24.256L27.5408 21.4997L24.6604 15.7496L26.5972 14.8309L30.4378 22.4976ZM8.75308 15.0279L11.6334 20.778L9.69656 21.6967L5.8561 14.0299L13.6035 10.3549L14.5636 12.2716L8.75308 15.0279Z"
        fill="#445FF8" />
    </g>
  </g>
  <defs>
    <clipPath id="clip0_424_11274">
      <rect width="36" height="36" fill="white" />
    </clipPath>
    <clipPath id="clip1_424_11274">
      <rect
        width="25.9992"
        height="25.4471"
        fill="white"
        transform="translate(10 2) rotate(19.0074)" />
    </clipPath>
  </defs>
</svg>
