<svg
  width="36"
  height="36"
  viewBox="0 0 36 36"
  fill="none"
  xmlns="http://www.w3.org/2000/svg">
  <path
    d="M8.65797 21.5032L3.98696 26.1743L9.82571 32.013L32.0131 9.82572L26.1742 3.98695L22.671 7.49022L25.0065 9.82572L22.671 12.1612L20.3355 9.82572L16.8323 13.329L20.3355 16.8322L18 19.1677L14.4967 15.6645L10.9935 19.1677L13.329 21.5032L10.9935 23.8388L8.65797 21.5032ZM27.3419 0.483693L35.5163 8.65796C36.1612 9.3029 36.1612 10.3485 35.5163 10.9935L10.9935 35.5162C10.3485 36.1613 9.3029 36.1613 8.65797 35.5162L0.483706 27.342C-0.161235 26.6971 -0.161235 25.6514 0.483706 25.0065L25.0065 0.483693C25.6513 -0.161231 26.697 -0.161231 27.3419 0.483693Z"
    fill="#B3B7C9" />
</svg>
