<svg
  width="21"
  height="21"
  viewBox="0 0 21 21"
  fill="none"
  xmlns="http://www.w3.org/2000/svg">
  <g clip-path="url(#clip0_2_552)">
    <path
      d="M15.9149 15.6041C14.571 15.6041 13.4629 16.6887 13.4629 18.0562C13.4629 19.4001 14.5475 20.5082 15.9149 20.5082C17.2589 20.5082 18.367 19.4237 18.367 18.0562C18.3434 16.7123 17.2589 15.6041 15.9149 15.6041Z"
      fill="#445FF8" />
    <path
      d="M20.2295 3.91025C20.1823 3.91025 20.1116 3.88667 20.0408 3.88667H5.18704L4.95126 2.30698C4.8098 1.26957 3.91386 0.491516 2.85287 0.491516H0.943098C0.424394 0.491516 0 0.91591 0 1.43461C0 1.95332 0.424394 2.37771 0.943098 2.37771H2.85287C2.97076 2.37771 3.06507 2.47202 3.08865 2.58991L4.55045 12.5396C4.73907 13.7892 5.82363 14.7323 7.09681 14.7323H16.905C18.1311 14.7323 19.192 13.8599 19.4514 12.6575L20.9839 4.99481C21.0782 4.49968 20.7482 4.00456 20.2295 3.91025Z"
      fill="#445FF8" />
    <path
      d="M9.90251 17.9383C9.85536 16.6415 8.7708 15.6041 7.47404 15.6041C6.10654 15.6749 5.06914 16.8066 5.11629 18.1505C5.16345 19.4472 6.22443 20.4847 7.52119 20.4847H7.56835C8.91226 20.4139 9.97325 19.2822 9.90251 17.9383Z"
      fill="#445FF8" />
  </g>
  <defs>
    <clipPath id="clip0_2_552">
      <rect width="21" height="21" fill="white" />
    </clipPath>
  </defs>
</svg>
