<svg
  width="36"
  height="36"
  viewBox="0 0 36 36"
  fill="none"
  xmlns="http://www.w3.org/2000/svg">
  <path
    d="M9 3C9 3.76926 9.735 4.5 10.5 4.5H25.4999C26.2693 4.5 26.9999 3.765 26.9999 3H29.9999C29.9999 5.48528 27.9853 7.5 25.4999 7.5H19.4999L19.5014 10.593C25.4203 11.3318 29.9999 16.3811 29.9999 22.5V31.5C29.9999 32.3284 29.3284 33 28.4999 33H7.5C6.67157 33 6 32.3284 6 31.5V22.5C6 16.3806 10.5806 11.3309 16.5001 10.5928L16.4999 7.5H10.5C8.01 7.5 6 5.49 6 3H9ZM17.9999 13.5C13.1424 13.5 9 17.64 9 22.5V30H26.9999V22.5C26.9999 17.6424 22.8575 13.5 17.9999 13.5ZM17.9999 16.5C19.1128 16.5 20.1547 16.8028 21.0479 17.3307L16.9393 21.4394C16.3535 22.0251 16.3535 22.9749 16.9393 23.5606C17.48 24.1014 18.331 24.143 18.9193 23.6855L19.0607 23.5606L23.1692 19.452C23.6971 20.3453 23.9999 21.3873 23.9999 22.5C23.9999 25.8137 21.3137 28.5 17.9999 28.5C14.6863 28.5 12 25.8137 12 22.5C12 19.1863 14.6863 16.5 17.9999 16.5Z"
    fill="#B3B7C9" />
</svg>
